<?xml version="1.0" encoding="UTF-8"?>
<!DOCTYPE svg PUBLIC "-//W3C//DTD SVG 1.1//EN" "http://www.w3.org/Graphics/SVG/1.1/DTD/svg11.dtd">
<!-- Creator: CorelDRAW X7 -->
<svg xmlns="http://www.w3.org/2000/svg" xml:space="preserve" width="0.290134in" height="0.311732in" version="1.1" style="shape-rendering:geometricPrecision; text-rendering:geometricPrecision; image-rendering:optimizeQuality; fill-rule:evenodd; clip-rule:evenodd"
viewBox="0 0 401 431"
 xmlns:xlink="http://www.w3.org/1999/xlink">
 <defs>
  <style type="text/css">
   <![CDATA[
    .fil0 {fill:black}
   ]]>
  </style>
 </defs>
 <g id="Layer_x0020_1">
  <metadata id="CorelCorpID_0Corel-Layer"/>
  <path class="fil0" d="M55 96c-18,0 -33,14 -33,33 0,18 15,33 33,33 19,0 34,-15 34,-33 0,-19 -15,-33 -34,-33zm291 0c18,0 33,14 33,33 0,18 -15,33 -33,33 -19,0 -33,-15 -33,-33 0,-19 14,-33 33,-33zm3 97l5 58 -8 10 -9 -10 5 -58c-4,-1 -4,-10 1,-10l6 0c4,0 5,9 0,10zm-34 117l0 107c0,19 31,19 31,0 0,19 30,19 30,0l0 -107 25 0 0 -92c0,-55 -111,-55 -111,0l0 92 25 0zm-168 -310l74 0c20,0 35,16 35,35l0 17 -8 0 0 -17c0,-14 -12,-26 -27,-26l-74 0c-15,0 -27,12 -27,26l0 54c0,22 23,26 31,26l48 0c1,3 1,6 2,9l-34 0 -48 26 7 -33c-8,-6 -14,-16 -14,-28l0 -54c0,-19 15,-35 35,-35zm126 60l-44 0c-12,0 -21,10 -21,21l0 32c0,12 9,21 21,21l32 0 28 16 -4 -20c6,-3 9,-10 9,-17l0 -32c0,-11 -9,-21 -21,-21zm-221 133l-5 58 8 10 9 -10 -5 -58c4,-1 4,-10 -1,-10l-5 0c-5,0 -6,9 -1,10zm34 117l0 107c0,19 -31,19 -31,0 0,19 -30,19 -30,0l0 -107 -25 0 0 -92c0,-55 111,-55 111,0l0 92 -25 0z"/>
 </g>
</svg>
