<?xml version="1.0" encoding="UTF-8" standalone="no"?> <svg width="64" height="64" viewBox="0 0 64 64" fill="none" xmlns="http://www.w3.org/2000/svg">
<path d="M21 57H16L14 45L12 57H7V39H21V57Z" fill="#79BD9A"/>
<path d="M16 57H20C21.0609 57 22.0783 57.4214 22.8284 58.1716C23.5786 58.9217 24 59.9391 24 61H16V57Z" fill="#CFF09E"/>
<path d="M12 61H4C4 59.9391 4.42143 58.9217 5.17157 58.1716C5.92172 57.4214 6.93913 57 8 57H12V61Z" fill="#CFF09E"/>
<path d="M30.57 27.71L27.53 29.23C26.5386 29.7295 25.4079 29.881 24.32 29.66L21 29V39H3V29C3 27.4087 3.63214 25.8826 4.75736 24.7574C5.88258 23.6321 7.4087 23 9 23H11L14 27L17 23H18.69C20.218 22.999 21.732 23.291 23.15 23.86L26 25L29.35 24.04L30.57 27.71Z" fill="#79BD9A"/>
<path d="M9 9H15C16.0609 9 17.0783 9.42143 17.8284 10.1716C18.5786 10.9217 19 11.9391 19 13H9V9Z" fill="#79BD9A"/>
<path d="M13.02 24C13.7477 24.5481 14.613 24.8839 15.52 24.97L14 27L11 23V22C11.8586 22.644 12.9017 22.9947 13.975 23.0001C15.0484 23.0055 16.0949 22.6654 16.96 22.03C16.499 22.6393 15.9037 23.134 15.2203 23.4757C14.537 23.8173 13.784 23.9968 13.02 24V24Z" fill="#CFF09E"/>
<path d="M12.59 15.59C12.402 15.7734 12.2529 15.9927 12.1515 16.235C12.0501 16.4772 11.9986 16.7374 12 17C12 18.3261 12.5268 19.5979 13.4645 20.5355C14.4021 21.4732 15.6739 22 17 22C16.1365 22.653 15.0825 23.0043 14 23C12.6739 23 11.4021 22.4732 10.4645 21.5355C9.52678 20.5979 9 19.3261 9 18V13H19V15H14C13.7374 14.9986 13.4772 15.0501 13.235 15.1515C12.9927 15.2529 12.7734 15.402 12.59 15.59V15.59Z" fill="#CFF09E"/>
<path d="M18 29L14 27L17 23H19L18 29Z" fill="#A8DBA8"/>
<path d="M10 29L14 27L11 23H9L10 29Z" fill="#A8DBA8"/>
<path d="M32.66 26.67L30.57 27.71L29.35 24.04L29.99 23.86C30.2468 24.311 30.6669 24.6464 31.1636 24.7971C31.6603 24.9478 32.1958 24.9023 32.66 24.67C32.9149 24.5455 33.1323 24.3557 33.29 24.12C33.392 24.2556 33.4698 24.4079 33.52 24.57C33.6557 24.9648 33.6434 25.3955 33.4851 25.7818C33.3269 26.1681 33.0337 26.4838 32.66 26.67Z" fill="#CFF09E"/>
<path d="M7 39V41C6.9992 41.3847 6.88745 41.761 6.67815 42.0839C6.46886 42.4067 6.1709 42.6623 5.82 42.82C5.94068 42.5636 6.0022 42.2834 6 42C5.99842 41.4701 5.7872 40.9623 5.41247 40.5875C5.03773 40.2128 4.52995 40.0016 4 40H3V39H7Z" fill="#CFF09E"/>
<path d="M48 47H56C57.3261 47 58.5979 47.5268 59.5355 48.4645C60.4732 49.4021 61 50.6739 61 52V61H43V52C43 50.6739 43.5268 49.4021 44.4645 48.4645C45.4021 47.5268 46.6739 47 48 47V47Z" fill="#A8DBA8"/>
<path d="M54.883 52.078L52 54L49.117 52.078C48.1582 51.4388 47.3721 50.5728 46.8283 49.5568C46.2846 48.5408 46 47.4063 46 46.254V40C46 38.4087 46.6321 36.8826 47.7574 35.7574C48.8826 34.6321 50.4087 34 52 34C53.5913 34 55.1174 34.6321 56.2426 35.7574C57.3679 36.8826 58 38.4087 58 40V46.254C58 47.4063 57.7154 48.5408 57.1717 49.5568C56.6279 50.5728 55.8418 51.4388 54.883 52.078V52.078Z" fill="#79BD9A"/>
<path d="M30 47H38C39.3261 47 40.5979 47.5268 41.5355 48.4645C42.4732 49.4021 43 50.6739 43 52V61H25V52C25 50.6739 25.5268 49.4021 26.4645 48.4645C27.4021 47.5268 28.6739 47 30 47V47Z" fill="#79BD9A"/>
<path d="M38 38V43C38 43.1605 37.99 43.3208 37.97 43.48C37.3693 43.8207 36.6906 43.9999 36 44H33.18C33.5483 44.5066 34.031 44.9192 34.5887 45.2041C35.1465 45.4891 35.7637 45.6384 36.39 45.64C36.6114 45.6408 36.8324 45.6207 37.05 45.58C36.5206 46.204 35.8125 46.6506 35.0213 46.8595C34.2301 47.0684 33.3938 47.0297 32.6253 46.7484C31.8568 46.4672 31.1931 45.957 30.7236 45.2867C30.2542 44.6165 30.0016 43.8183 30 43V38H38Z" fill="#CFF09E"/>
<path d="M28 35H36C37.0609 35 38.0783 35.4214 38.8284 36.1716C39.5786 36.9217 40 37.9391 40 39C40 40.0609 39.5786 41.0783 38.8284 41.8284C38.0783 42.5786 37.0609 43 36 43H32C30.9391 43 29.9217 42.5786 29.1716 41.8284C28.4214 41.0783 28 40.0609 28 39V35Z" fill="#79BD9A"/>
<path d="M56 3H33C32.4696 3 31.9609 3.21071 31.5858 3.58579C31.2107 3.96086 31 4.46957 31 5V12L24 19L31 18V21C31 21.5304 31.2107 22.0391 31.5858 22.4142C31.9609 22.7893 32.4696 23 33 23H56C56.5304 23 57.0391 22.7893 57.4142 22.4142C57.7893 22.0391 58 21.5304 58 21V5C58 4.46957 57.7893 3.96086 57.4142 3.58579C57.0391 3.21071 56.5304 3 56 3Z" fill="#A8DBA8"/>
<path d="M47 55C46.7348 55 46.4804 55.1054 46.2929 55.2929C46.1054 55.4804 46 55.7348 46 56V61C46 61.2652 46.1054 61.5196 46.2929 61.7071C46.4804 61.8946 46.7348 62 47 62C47.2652 62 47.5196 61.8946 47.7071 61.7071C47.8946 61.5196 48 61.2652 48 61V56C48 55.7348 47.8946 55.4804 47.7071 55.2929C47.5196 55.1054 47.2652 55 47 55Z" fill="#3B8686"/>
<path d="M57 55C56.7348 55 56.4804 55.1054 56.2929 55.2929C56.1054 55.4804 56 55.7348 56 56V61C56 61.2652 56.1054 61.5196 56.2929 61.7071C56.4804 61.8946 56.7348 62 57 62C57.2652 62 57.5196 61.8946 57.7071 61.7071C57.8946 61.5196 58 61.2652 58 61V56C58 55.7348 57.8946 55.4804 57.7071 55.2929C57.5196 55.1054 57.2652 55 57 55Z" fill="#3B8686"/>
<path d="M25 62C25.2652 62 25.5196 61.8946 25.7071 61.7071C25.8946 61.5196 26 61.2652 26 61V52C26 50.9391 26.4214 49.9217 27.1716 49.1716C27.9217 48.4214 28.9391 48 30 48H38C39.0609 48 40.0783 48.4214 40.8284 49.1716C41.5786 49.9217 42 50.9391 42 52V61C42 61.2652 42.1054 61.5196 42.2929 61.7071C42.4804 61.8946 42.7348 62 43 62C43.2652 62 43.5196 61.8946 43.7071 61.7071C43.8946 61.5196 44 61.2652 44 61V52C44.0004 51.4104 44.1324 50.8283 44.3866 50.2963C44.6408 49.7643 45.0106 49.2958 45.469 48.925C46.0417 50.5533 47.1275 51.9516 48.563 52.91L51.445 54.832C51.6093 54.9416 51.8025 55.0001 52 55.0001C52.1975 55.0001 52.3907 54.9416 52.555 54.832L55.438 52.91C56.8782 51.9486 57.9663 50.5445 58.538 48.91C58.9959 49.2841 59.3647 49.7555 59.6176 50.29C59.8705 50.8245 60.0012 51.4087 60 52V61C60 61.2652 60.1054 61.5196 60.2929 61.7071C60.4804 61.8946 60.7348 62 61 62C61.2652 62 61.5196 61.8946 61.7071 61.7071C61.8946 61.5196 62 61.2652 62 61V52C62.0005 50.9421 61.7199 49.9031 61.1867 48.9894C60.6536 48.0757 59.8872 47.3201 58.966 46.8C58.979 46.619 59 46.439 59 46.256V40C59 38.1435 58.2625 36.363 56.9497 35.0503C55.637 33.7375 53.8565 33 52 33C50.1435 33 48.363 33.7375 47.0503 35.0503C45.7375 36.363 45 38.1435 45 40V46.254C45 46.437 45.021 46.617 45.034 46.798C44.2171 47.2593 43.5203 47.9064 43 48.687C42.4531 47.8612 41.7103 47.1837 40.8378 46.7148C39.9654 46.246 38.9904 46.0004 38 46H37.974C38.6358 45.1396 38.9963 44.0855 39 43V42.974C39.8393 42.3466 40.4594 41.4705 40.7722 40.4704C41.085 39.4702 41.0745 38.3969 40.7423 37.4031C40.4101 36.4093 39.773 35.5455 38.9216 34.9345C38.0702 34.3236 37.0479 33.9966 36 34H28C27.7348 34 27.4804 34.1054 27.2929 34.2929C27.1054 34.4804 27 34.7348 27 35V39C27.0022 39.7721 27.1841 40.5332 27.5312 41.2229C27.8784 41.9126 28.3812 42.5121 29 42.974V43C29.0037 44.0855 29.3642 45.1396 30.026 46H30C28.4092 46.0016 26.884 46.6342 25.7591 47.7591C24.6342 48.884 24.0016 50.4092 24 52V58.031C23.4838 57.3311 22.7946 56.7774 22 56.424V30.22L24.122 30.644C25.4304 30.9039 26.7881 30.722 27.982 30.127L33.103 27.567C33.4951 27.3676 33.8325 27.0755 34.086 26.716C34.3056 26.4147 34.462 26.0722 34.546 25.709C34.546 25.699 34.546 25.688 34.546 25.678C34.578 25.5309 34.5981 25.3814 34.606 25.231C34.6201 24.9011 34.574 24.5714 34.47 24.258C34.439 24.167 34.394 24.086 34.355 24H56C56.7956 24 57.5587 23.6839 58.1213 23.1213C58.6839 22.5587 59 21.7956 59 21V5C59 4.20435 58.6839 3.44129 58.1213 2.87868C57.5587 2.31607 56.7956 2 56 2H33C32.2044 2 31.4413 2.31607 30.8787 2.87868C30.3161 3.44129 30 4.20435 30 5V11.586L23.293 18.293C23.1433 18.4412 23.0442 18.6329 23.0099 18.8408C22.9756 19.0486 23.0078 19.262 23.1019 19.4504C23.196 19.6389 23.3473 19.7928 23.534 19.8902C23.7208 19.9877 23.9336 20.0236 24.142 19.993L30 19.153V21C29.9993 21.5957 30.1769 22.1781 30.51 22.672L29.229 23.038L29.073 23.082L26.054 23.944L23.517 22.93C22.1047 22.3682 20.6044 22.0598 19.085 22.019C19.057 22.0111 19.0287 22.0048 19 22H18.46C19.4509 20.9033 19.9996 19.478 20 18V13C19.9984 11.6744 19.4711 10.4036 18.5338 9.46622C17.5964 8.52888 16.3256 8.00159 15 8H9C8.73478 8 8.48043 8.10536 8.29289 8.29289C8.10536 8.48043 8 8.73478 8 9V18C8.0004 19.478 8.54914 20.9033 9.54 22H9C7.14413 22.0021 5.36489 22.7403 4.05259 24.0526C2.7403 25.3649 2.00212 27.1441 2 29V41C2 41.7956 2.31607 42.5587 2.87868 43.1213C3.44129 43.6839 4.20435 44 5 44C5.34144 43.9967 5.67974 43.9344 6 43.816V56.424C5.10936 56.8127 4.35129 57.4525 3.8185 58.2652C3.28571 59.0779 3.00128 60.0282 3 61C3 61.2652 3.10536 61.5196 3.29289 61.7071C3.48043 61.8946 3.73478 62 4 62H12C12.2652 62 12.5196 61.8946 12.7071 61.7071C12.8946 61.5196 13 61.2652 13 61V57.083L14 51.083L15 57.083V61C15 61.2652 15.1054 61.5196 15.2929 61.7071C15.4804 61.8946 15.7348 62 16 62H25ZM31.68 24.417C31.8619 24.3757 32.0526 24.4008 32.2176 24.4877C32.3826 24.5746 32.5112 24.7176 32.58 24.891C32.635 25.0583 32.628 25.2397 32.5605 25.4023C32.493 25.5649 32.3693 25.6979 32.212 25.777L31.159 26.304L30.63 24.718L31.68 24.417ZM26.829 17.586L31.707 12.707C31.8946 12.5195 31.9999 12.2652 32 12V5C32 4.73478 32.1054 4.48043 32.2929 4.29289C32.4804 4.10536 32.7348 4 33 4H56C56.2652 4 56.5196 4.10536 56.7071 4.29289C56.8946 4.48043 57 4.73478 57 5V21C57 21.2652 56.8946 21.5196 56.7071 21.7071C56.5196 21.8946 56.2652 22 56 22H33C32.7348 22 32.4804 21.8946 32.2929 21.7071C32.1054 21.5196 32 21.2652 32 21V18C32 17.7348 31.8946 17.4804 31.7071 17.2929C31.5196 17.1054 31.2652 17 31 17C30.9525 16.9999 30.905 17.0032 30.858 17.01L26.829 17.586ZM25.629 25.929C25.8348 26.0109 26.0621 26.0222 26.275 25.961L28.702 25.268L29.348 27.208L27.087 28.338C26.291 28.7342 25.3862 28.8556 24.514 28.683L21.2 28.02C21.0547 27.9903 20.9046 27.9934 20.7606 28.0289C20.6166 28.0644 20.4823 28.1315 20.3675 28.2253C20.2526 28.3191 20.16 28.4373 20.0965 28.5712C20.0329 28.7052 20 28.8517 20 29V38H15V28.618L17.553 29.9C17.6929 29.9699 17.8473 30.0059 18.0037 30.0053C18.1601 30.0047 18.3142 29.9673 18.4536 29.8963C18.5929 29.8253 18.7137 29.7226 18.8062 29.5965C18.8986 29.4704 18.9602 29.3243 18.986 29.17L19.836 24.07C20.8441 24.1738 21.8329 24.4171 22.774 24.793L25.629 25.929ZM10.5 24L12.481 26.642L10.764 27.5L10.181 24H10.5ZM10 14H18V18C18 19.0609 17.5786 20.0783 16.8284 20.8284C16.0783 21.5786 15.0609 22 14 22C12.9391 22 11.9217 21.5786 11.1716 20.8284C10.4214 20.0783 10 19.0609 10 18V14ZM17.5 24H17.819L17.236 27.5L15.519 26.642L17.5 24ZM14 24C14.3613 23.9993 14.7218 23.9658 15.077 23.9L14 25.333L12.923 23.9C13.2782 23.9658 13.6387 23.9993 14 24V24ZM10 10H15C15.6203 10.0008 16.2251 10.1934 16.7316 10.5514C17.2381 10.9095 17.6214 11.4155 17.829 12H10V10ZM8.167 24.084L9.014 29.165C9.03976 29.3193 9.10135 29.4654 9.19382 29.5915C9.28629 29.7176 9.40706 29.8203 9.54643 29.8913C9.68579 29.9623 9.83987 29.9997 9.99628 30.0003C10.1527 30.0009 10.3071 29.9649 10.447 29.895L13 28.618V38H8V31C8 30.7348 7.89464 30.4804 7.70711 30.2929C7.51957 30.1054 7.26522 30 7 30C6.73478 30 6.48043 30.1054 6.29289 30.2929C6.10536 30.4804 6 30.7348 6 31V38H4V29C4.00333 27.8208 4.42335 26.6807 5.18585 25.7811C5.94834 24.8816 7.00424 24.2805 8.167 24.084V24.084ZM5 42C4.73478 42 4.48043 41.8946 4.29289 41.7071C4.10536 41.5196 4 41.2652 4 41V40H6V41C6 41.2652 5.89464 41.5196 5.70711 41.7071C5.51957 41.8946 5.26522 42 5 42ZM11 60H5.171C5.37858 59.4155 5.7619 58.9095 6.26839 58.5514C6.77487 58.1934 7.37973 58.0008 8 58H11V60ZM14 44C13.7634 44.0001 13.5346 44.084 13.354 44.2369C13.1735 44.3898 13.053 44.6017 13.014 44.835L11.153 56H8V40H20V56H16.847L14.986 44.835C14.947 44.6017 14.8265 44.3898 14.646 44.2369C14.4654 44.084 14.2366 44.0001 14 44ZM17 60V58H20C20.6203 58.0008 21.2251 58.1934 21.7316 58.5514C22.2381 58.9095 22.6214 59.4155 22.829 60H17ZM29 36H36C36.7956 36 37.5587 36.3161 38.1213 36.8787C38.6839 37.4413 39 38.2044 39 39C39 39.7956 38.6839 40.5587 38.1213 41.1213C37.5587 41.6839 36.7956 42 36 42H32C31.2044 42 30.4413 41.6839 29.8787 41.1213C29.3161 40.5587 29 39.7956 29 39V36ZM31.158 43.915C31.4357 43.9672 31.7174 43.9956 32 44H36C36.2826 43.9956 36.5643 43.9672 36.842 43.915C36.6519 44.5199 36.2738 45.0484 35.7627 45.4235C35.2515 45.7987 34.634 46.001 34 46.001C33.366 46.001 32.7485 45.7987 32.2373 45.4235C31.7262 45.0484 31.3481 44.5199 31.158 43.915V43.915ZM57 46.254C57.0009 47.2419 56.7574 48.2147 56.2912 49.0857C55.825 49.9567 55.1506 50.6988 54.328 51.246L52 52.8L49.672 51.248C48.8492 50.7007 48.1746 49.9582 47.7083 49.0868C47.2421 48.2155 46.9988 47.2423 47 46.254V40C47 38.6739 47.5268 37.4021 48.4645 36.4645C49.4021 35.5268 50.6739 35 52 35C53.3261 35 54.5979 35.5268 55.5355 36.4645C56.4732 37.4021 57 38.6739 57 40V46.254Z" fill="#3B8686"/>
<path d="M29 55C28.7348 55 28.4804 55.1054 28.2929 55.2929C28.1054 55.4804 28 55.7348 28 56V61C28 61.2652 28.1054 61.5196 28.2929 61.7071C28.4804 61.8946 28.7348 62 29 62C29.2652 62 29.5196 61.8946 29.7071 61.7071C29.8946 61.5196 30 61.2652 30 61V56C30 55.7348 29.8946 55.4804 29.7071 55.2929C29.5196 55.1054 29.2652 55 29 55Z" fill="#3B8686"/>
<path d="M39 55C38.7348 55 38.4804 55.1054 38.2929 55.2929C38.1054 55.4804 38 55.7348 38 56V61C38 61.2652 38.1054 61.5196 38.2929 61.7071C38.4804 61.8946 38.7348 62 39 62C39.2652 62 39.5196 61.8946 39.7071 61.7071C39.8946 61.5196 40 61.2652 40 61V56C40 55.7348 39.8946 55.4804 39.7071 55.2929C39.5196 55.1054 39.2652 55 39 55Z" fill="#3B8686"/>
<path d="M40 8H54C54.2652 8 54.5196 7.89464 54.7071 7.70711C54.8946 7.51957 55 7.26522 55 7C55 6.73478 54.8946 6.48043 54.7071 6.29289C54.5196 6.10536 54.2652 6 54 6H40C39.7348 6 39.4804 6.10536 39.2929 6.29289C39.1054 6.48043 39 6.73478 39 7C39 7.26522 39.1054 7.51957 39.2929 7.70711C39.4804 7.89464 39.7348 8 40 8Z" fill="#3B8686"/>
<path d="M36 12H50C50.2652 12 50.5196 11.8946 50.7071 11.7071C50.8946 11.5196 51 11.2652 51 11C51 10.7348 50.8946 10.4804 50.7071 10.2929C50.5196 10.1054 50.2652 10 50 10H36C35.7348 10 35.4804 10.1054 35.2929 10.2929C35.1054 10.4804 35 10.7348 35 11C35 11.2652 35.1054 11.5196 35.2929 11.7071C35.4804 11.8946 35.7348 12 36 12Z" fill="#3B8686"/>
<path d="M53 14H39C38.7348 14 38.4804 14.1054 38.2929 14.2929C38.1054 14.4804 38 14.7348 38 15C38 15.2652 38.1054 15.5196 38.2929 15.7071C38.4804 15.8946 38.7348 16 39 16H53C53.2652 16 53.5196 15.8946 53.7071 15.7071C53.8946 15.5196 54 15.2652 54 15C54 14.7348 53.8946 14.4804 53.7071 14.2929C53.5196 14.1054 53.2652 14 53 14Z" fill="#3B8686"/>
<path d="M36 20H51C51.2652 20 51.5196 19.8946 51.7071 19.7071C51.8946 19.5196 52 19.2652 52 19C52 18.7348 51.8946 18.4804 51.7071 18.2929C51.5196 18.1054 51.2652 18 51 18H36C35.7348 18 35.4804 18.1054 35.2929 18.2929C35.1054 18.4804 35 18.7348 35 19C35 19.2652 35.1054 19.5196 35.2929 19.7071C35.4804 19.8946 35.7348 20 36 20Z" fill="#3B8686"/>
</svg>
